<svg width="13" height="11" viewBox="0 0 13 11" fill="none" xmlns="http://www.w3.org/2000/svg">
    <path d="M7.12359 6.91773C7.12359 7.27843 7.1283 7.58569 7.12202 7.89294C7.11496 8.24185 7.2679 8.4941 7.56513 8.66227C8.02942 8.92474 8.49684 9.1817 8.96348 9.44102C9.26072 9.60605 9.55639 9.60762 9.85362 9.43552C10.3148 9.16755 10.7775 8.90116 11.2426 8.63948C11.5296 8.4776 11.6778 8.24264 11.6755 7.90866C11.6723 7.40023 11.6676 6.89102 11.677 6.38259C11.6841 6.01718 11.5272 5.75864 11.2159 5.58419C10.7838 5.34294 10.3477 5.11033 9.92107 4.86044C9.55795 4.64748 9.21837 4.66555 8.85447 4.87223C7.31652 5.74764 5.76603 6.60105 4.23278 7.4851C3.77634 7.74835 3.38186 7.76643 2.92306 7.49139C2.13173 7.01596 1.31688 6.57826 0.505166 6.13819C0.159305 5.95195 -0.00460715 5.69027 9.84531e-05 5.29186C0.0118625 4.32686 0.00950965 3.36108 0.000882719 2.39609C-0.00225435 2.02989 0.145188 1.7745 0.461247 1.60005C1.33806 1.11519 2.2133 0.627192 3.08697 0.137622C3.42421 -0.0517625 3.74811 -0.0439043 4.08456 0.150195C4.91823 0.631907 5.75426 1.10969 6.59735 1.5749C6.94243 1.76507 7.10163 2.03304 7.10712 2.42595C7.11967 3.36658 7.12673 3.36658 6.31423 3.82629C6.17855 3.90252 6.04209 3.97638 5.82328 4.09583C5.82328 3.75164 5.8123 3.46167 5.82563 3.17327C5.84445 2.75992 5.66564 2.47939 5.30723 2.28843C4.87118 2.05582 4.4414 1.81065 4.01005 1.5694C3.70027 1.39573 3.39754 1.39023 3.08462 1.57018C2.63367 1.83029 2.17722 2.08018 1.72078 2.33008C1.41805 2.49589 1.26512 2.74264 1.26826 3.09076C1.27218 3.59919 1.27139 4.1084 1.26826 4.61683C1.26669 4.94688 1.4055 5.19677 1.68784 5.36023C2.17173 5.64077 2.65798 5.91895 3.14814 6.18691C3.47518 6.36608 3.78967 6.31186 4.10965 6.12876C5.66799 5.23685 7.23731 4.3638 8.79173 3.46481C9.20817 3.22435 9.57442 3.20392 9.99479 3.45302C10.812 3.93709 11.6433 4.3968 12.4786 4.85022C12.8385 5.04589 13.0056 5.31465 12.9993 5.72956C12.9852 6.66863 12.986 7.60769 12.9993 8.54675C13.0048 8.9601 12.837 9.23592 12.4801 9.43081C11.6237 9.89916 10.7736 10.3777 9.92264 10.8563C9.58697 11.0449 9.26385 11.048 8.92427 10.8563C8.06393 10.3683 7.19966 9.88816 6.33305 9.41116C6.01934 9.23828 5.85935 8.99624 5.85229 8.62769C5.83426 7.63519 5.82641 7.63441 6.69852 7.14012C6.8193 7.07176 6.94478 7.01046 7.12281 6.91773H7.12359Z"
          fill="#504EC3"></path>
</svg>
